<?xml version="1.0" encoding="UTF-8"?><svg id="Ebene_1" xmlns="http://www.w3.org/2000/svg" viewBox="0 0 200 80"><defs><style>.cls-1{fill:#fff;}</style></defs><path class="cls-1" d="M24.12,29.74h-8.01v20.59h-2.94V29.74H5.17v-2.61H24.12v2.61Z"/><path class="cls-1" d="M33.37,35.78c-1.44,.02-2.71,.39-3.81,1.1-1.1,.71-1.88,1.68-2.34,2.92v10.52h-2.88v-16.96h2.68v3.86c.59-1.18,1.37-2.13,2.34-2.86,.97-.73,1.99-1.14,3.06-1.23h.56c.15,0,.28,.01,.39,.03v2.61Z"/><path class="cls-1" d="M34.88,45.43c0-1.08,.31-2.02,.93-2.81,.62-.79,1.48-1.4,2.57-1.83,1.09-.43,2.35-.65,3.79-.65,.76,0,1.57,.06,2.42,.18,.85,.12,1.6,.3,2.26,.54v-1.24c0-1.29-.39-2.3-1.18-3.04-.78-.74-1.9-1.11-3.33-1.11-.94,0-1.84,.17-2.7,.51-.86,.34-1.77,.82-2.73,1.46l-1.05-2.03c1.11-.76,2.22-1.33,3.33-1.72,1.11-.38,2.27-.57,3.46-.57,2.18,0,3.9,.6,5.16,1.8,1.26,1.2,1.9,2.87,1.9,5v7.16c0,.35,.07,.6,.21,.76,.14,.16,.38,.25,.7,.28v2.22c-.28,.04-.53,.08-.74,.1-.21,.02-.38,.03-.51,.03-.68,0-1.18-.18-1.52-.56-.34-.37-.53-.76-.57-1.18l-.07-1.08c-.74,.96-1.71,1.7-2.91,2.22-1.2,.52-2.39,.79-3.56,.79s-2.15-.23-3.04-.7c-.89-.47-1.59-1.09-2.09-1.88-.5-.79-.75-1.67-.75-2.65Zm11.11,1.2c.26-.3,.47-.61,.62-.92,.15-.31,.23-.58,.23-.79v-2.1c-.68-.26-1.38-.46-2.12-.6-.74-.14-1.47-.21-2.19-.21-1.46,0-2.64,.29-3.55,.86-.9,.57-1.36,1.35-1.36,2.35,0,.54,.15,1.06,.44,1.57,.29,.51,.73,.92,1.31,1.25,.58,.32,1.29,.49,2.14,.49,.89,0,1.74-.18,2.55-.53,.81-.36,1.45-.8,1.93-1.34Zm-7.26-16.72v-3.33h2.42v3.33h-2.42Zm5.29,0v-3.33h2.42v3.33h-2.42Z"/><path class="cls-1" d="M75.14,33.37h2.78l-7.26,16.96h-2.52l-3.3-7.99-3.27,7.99h-2.52l-7.26-16.96h2.75l5.88,14.14,2.75-6.95-2.88-7.15h2.52l2.03,5.39,2.03-5.39h2.52l-2.84,7.15,2.75,6.95,5.85-14.14Z"/><path class="cls-1" d="M87.56,50.66c-1.29,0-2.46-.23-3.51-.7-1.06-.46-1.97-1.1-2.75-1.91-.77-.81-1.37-1.75-1.8-2.81-.42-1.06-.64-2.18-.64-3.38,0-1.6,.37-3.06,1.11-4.38,.74-1.32,1.77-2.38,3.09-3.18,1.32-.8,2.83-1.2,4.53-1.2s3.22,.41,4.49,1.22c1.27,.81,2.27,1.87,2.97,3.18,.71,1.31,1.06,2.72,1.06,4.24,0,.22,0,.43-.02,.63-.01,.21-.03,.36-.05,.47h-14.15c.09,1.1,.4,2.07,.93,2.92,.53,.85,1.23,1.52,2.08,2,.85,.48,1.76,.73,2.75,.73,1.05,0,2.03-.26,2.96-.79,.93-.52,1.56-1.21,1.91-2.06l2.48,.69c-.37,.83-.92,1.57-1.65,2.22-.73,.65-1.59,1.17-2.58,1.54-.99,.37-2.06,.56-3.22,.56Zm-5.75-9.81h11.64c-.09-1.1-.4-2.07-.95-2.91-.54-.84-1.24-1.5-2.09-1.97-.85-.47-1.79-.71-2.81-.71s-1.93,.24-2.78,.71c-.85,.47-1.54,1.13-2.08,1.97-.53,.84-.84,1.81-.93,2.91Z"/><path class="cls-1" d="M99.4,26.47h2.88v19.54c0,.94,.13,1.52,.39,1.74,.26,.22,.58,.33,.95,.33,.46,0,.89-.05,1.31-.15,.41-.1,.76-.2,1.05-.31l.46,2.35c-.48,.2-1.05,.36-1.7,.49-.65,.13-1.23,.2-1.73,.2-1.11,0-1.99-.32-2.63-.95-.64-.63-.96-1.52-.96-2.66V26.47Z"/><path class="cls-1" d="M108.74,26.47h2.88v19.54c0,.94,.13,1.52,.39,1.74,.26,.22,.58,.33,.95,.33,.46,0,.89-.05,1.31-.15,.41-.1,.76-.2,1.05-.31l.46,2.35c-.48,.2-1.05,.36-1.7,.49-.65,.13-1.23,.2-1.73,.2-1.11,0-1.99-.32-2.63-.95-.64-.63-.96-1.52-.96-2.66V26.47Z"/><path class="cls-1" d="M116.91,41.9c0-1.6,.33-3.07,1-4.4,.67-1.33,1.58-2.39,2.75-3.2,1.17-.8,2.5-1.2,4-1.2,1.37,0,2.6,.36,3.69,1.08,1.09,.72,1.94,1.59,2.55,2.62v-10.33h2.88v20.59c0,.35,.07,.6,.21,.77,.14,.16,.38,.26,.7,.28v2.22c-.54,.09-.97,.13-1.28,.13-.57,0-1.06-.2-1.49-.59-.42-.39-.64-.83-.64-1.31v-1.44c-.68,1.09-1.58,1.95-2.71,2.58s-2.31,.95-3.53,.95-2.26-.23-3.25-.7c-.99-.46-1.85-1.11-2.58-1.93-.73-.82-1.3-1.76-1.7-2.81-.4-1.05-.61-2.16-.61-3.33Zm13.99,2.49v-4.85c-.26-.73-.69-1.4-1.27-1.99-.59-.59-1.25-1.07-1.98-1.42-.73-.36-1.45-.53-2.17-.53-.85,0-1.62,.18-2.3,.53s-1.28,.83-1.77,1.42c-.49,.59-.87,1.27-1.13,2.02-.26,.75-.39,1.54-.39,2.36s.15,1.64,.44,2.39,.71,1.42,1.24,2.01c.53,.58,1.15,1.04,1.86,1.36,.71,.32,1.48,.49,2.3,.49,.52,0,1.06-.1,1.62-.29s1.08-.46,1.58-.81c.5-.34,.93-.75,1.27-1.21,.35-.46,.58-.95,.69-1.47Z"/><path class="cls-1" d="M147.61,35.78c-1.44,.02-2.71,.39-3.81,1.1-1.1,.71-1.88,1.68-2.34,2.92v10.52h-2.88v-16.96h2.68v3.86c.59-1.18,1.37-2.13,2.34-2.86,.97-.73,1.99-1.14,3.06-1.23h.56c.15,0,.28,.01,.39,.03v2.61Z"/><path class="cls-1" d="M157.51,50.66c-1.29,0-2.45-.23-3.5-.7s-1.95-1.1-2.71-1.91c-.76-.81-1.35-1.75-1.76-2.81-.41-1.06-.62-2.17-.62-3.34s.21-2.31,.62-3.37c.41-1.06,1-2,1.76-2.81,.76-.81,1.67-1.45,2.73-1.91,1.06-.46,2.23-.7,3.51-.7s2.42,.23,3.46,.7c1.05,.47,1.96,1.1,2.73,1.91,.77,.81,1.37,1.75,1.78,2.81s.62,2.18,.62,3.37-.21,2.28-.62,3.34c-.41,1.06-1,2-1.76,2.81-.76,.81-1.67,1.45-2.73,1.91s-2.23,.7-3.51,.7Zm-5.65-8.73c0,1.16,.26,2.22,.77,3.17,.51,.95,1.19,1.7,2.04,2.25,.85,.55,1.8,.83,2.84,.83s2-.28,2.86-.84c.86-.56,1.55-1.32,2.06-2.28,.51-.96,.77-2.02,.77-3.19s-.26-2.22-.77-3.17c-.51-.95-1.2-1.7-2.06-2.26-.86-.56-1.81-.84-2.86-.84s-1.99,.29-2.84,.86c-.85,.57-1.53,1.33-2.04,2.28-.51,.95-.77,2.02-.77,3.2Z"/><path class="cls-1" d="M169.63,30.06v-3.6h2.88v3.6h-2.88Zm0,20.26v-17.06h2.88v17.06h-2.88Z"/><path class="cls-1" d="M176.04,41.9c0-1.6,.33-3.07,1-4.4,.67-1.33,1.58-2.39,2.75-3.2,1.17-.8,2.5-1.2,4-1.2,1.37,0,2.6,.36,3.69,1.08,1.09,.72,1.94,1.59,2.55,2.62v-10.33h2.88v20.59c0,.35,.07,.6,.21,.77,.14,.16,.38,.26,.7,.28v2.22c-.54,.09-.97,.13-1.28,.13-.57,0-1.06-.2-1.49-.59-.42-.39-.64-.83-.64-1.31v-1.44c-.68,1.09-1.58,1.95-2.71,2.58s-2.31,.95-3.53,.95-2.26-.23-3.25-.7c-.99-.46-1.85-1.11-2.58-1.93-.73-.82-1.3-1.76-1.7-2.81-.4-1.05-.61-2.16-.61-3.33Zm13.99,2.49v-4.85c-.26-.73-.69-1.4-1.27-1.99-.59-.59-1.25-1.07-1.98-1.42-.73-.36-1.45-.53-2.17-.53-.85,0-1.62,.18-2.3,.53s-1.28,.83-1.77,1.42c-.49,.59-.87,1.27-1.13,2.02-.26,.75-.39,1.54-.39,2.36s.15,1.64,.44,2.39,.71,1.42,1.24,2.01c.53,.58,1.15,1.04,1.86,1.36,.71,.32,1.48,.49,2.3,.49,.52,0,1.06-.1,1.62-.29s1.08-.46,1.58-.81c.5-.34,.93-.75,1.27-1.21,.35-.46,.58-.95,.69-1.47Z"/></svg>